<?xml version="1.0" encoding="UTF-8"?>
<svg width="757px" height="311px" viewBox="0 0 757 311" version="1.1" xmlns="http://www.w3.org/2000/svg" xmlns:xlink="http://www.w3.org/1999/xlink">
    <title>Group</title>
    <defs>
        <linearGradient x1="100%" y1="50%" x2="0%" y2="50%" id="linearGradient-1">
            <stop stop-color="#FFFFFF" stop-opacity="0" offset="0%"></stop>
            <stop stop-color="#FFFFFF" offset="51.4146498%"></stop>
            <stop stop-color="#FFFFFF" stop-opacity="0" offset="100%"></stop>
        </linearGradient>
    </defs>
    <g id="Page-1" stroke="none" stroke-width="1" fill="none" fill-rule="evenodd">
        <g id="Group" transform="translate(1.435760, 0.000000)">
            <rect id="Rectangle" fill-opacity="0.1" fill="#FFFFFF" x="0.564239502" y="0" width="753" height="311"></rect>
            <path d="M0,127.579407 L48.8028035,155.486166 C49.7388237,156.021407 50.8512887,156.156091 51.8879948,155.859683 L98.7584336,142.458792 C99.8846264,142.136799 101.095363,142.324612 102.07108,142.97266 L150.511626,175.145749 C150.703517,175.273198 150.884039,175.416986 151.05118,175.575508 L197.503032,219.632029 C199.10591,221.152253 201.637683,221.085249 203.157907,219.482372 C203.34512,219.28498 203.511706,219.069004 203.65508,218.837798 L251.006959,142.477639 C251.223253,142.12884 251.49194,141.815408 251.803584,141.548347 L298.150381,101.831797 C299.82785,100.394302 302.353027,100.58884 303.790522,102.266309 C303.900697,102.394876 304.002596,102.530308 304.095607,102.671788 L351.717694,175.110675 C351.816895,175.261572 351.926201,175.405578 352.044862,175.541704 L399.11809,229.543801 C400.569696,231.209074 403.096426,231.382285 404.761699,229.930679 C404.899337,229.810701 405.028599,229.681439 405.148577,229.543801 L450.169208,177.89643 C451.455919,176.420324 453.622101,176.092756 455.28773,177.122411 L499.311462,204.336898 C501.17202,205.487054 503.611403,204.929411 504.787425,203.085093 L550.008277,132.166679 C551.196009,130.303997 553.668859,129.756841 555.531542,130.944574 C555.872653,131.162082 556.178794,131.43008 556.439515,131.739421 L599.677606,183.040539 C601.101307,184.729731 603.624806,184.944955 605.313998,183.521254 C605.627851,183.25673 605.899119,182.945474 606.118275,182.598419 L651.252635,111.123837 C652.43216,109.255946 654.902579,108.697916 656.77047,109.877441 C656.811061,109.903073 656.851187,109.929433 656.890829,109.95651 L700.620837,139.825398 C702.36892,141.01939 704.744604,140.644627 706.04024,138.97049 L754,77 L754,77" id="Path" stroke="url(#linearGradient-1)" stroke-width="3" opacity="0.3"></path>
        </g>
    </g>
</svg>